<?xml version="1.0" encoding="utf-8"?>
<!-- Generator: Adobe Illustrator 16.0.0, SVG Export Plug-In . SVG Version: 6.00 Build 0)  -->
<!DOCTYPE svg PUBLIC "-//W3C//DTD SVG 1.1//EN" "http://www.w3.org/Graphics/SVG/1.1/DTD/svg11.dtd">
<svg version="1.1" id="Livello_1" xmlns="http://www.w3.org/2000/svg" xmlns:xlink="http://www.w3.org/1999/xlink" x="0px" y="0px"
	 width="1980px" height="1980px" viewBox="0 0 1980 1980" enable-background="new 0 0 1980 1980" xml:space="preserve">
<path fill="#2368A4" d="M841.5,115.629l61.875-82.371C918.844,12.375,943.594,0,969.504,0c45.246,0,82.371,37.125,82.371,82.371
	v85.852c0,50.66,20.883,99.387,57.621,134.191l327.551,312.469c188.719,180.211,295.453,430.031,295.453,691.066
	c0,372.41-301.641,674.051-674.051,674.051H990c-409.922,0-742.5-332.578-742.5-742.5v-14.695
	c0-188.719,75.023-369.703,208.441-503.121l13.535-13.535c16.242-16.242,38.672-25.523,61.875-25.523
	c48.34,0,87.398,39.059,87.398,87.398v345.727c0,136.512,110.988,247.5,247.5,247.5s247.5-110.988,247.5-247.5v-15.082
	c0-69.609-27.844-136.512-76.957-185.625L887.52,763.77C794.707,670.957,742.5,544.5,742.5,413.016
	C742.5,305.895,777.305,201.094,841.5,115.629z"/>
</svg>
